<mxfile host="app.diagrams.net" agent="Mozilla/5.0 (X11; Ubuntu; Linux x86_64; rv:142.0) Gecko/20100101 Firefox/142.0" version="28.1.2">
  <diagram name="Page-1" id="fpcYGi2z4WSwUPu-DbzD">
    <mxGraphModel dx="815" dy="472" grid="1" gridSize="10" guides="1" tooltips="1" connect="1" arrows="1" fold="1" page="1" pageScale="1" pageWidth="827" pageHeight="1169" math="0" shadow="0">
      <root>
        <mxCell id="0" />
        <mxCell id="1" parent="0" />
        <mxCell id="Ptt1Fs8Xp1jdj_loe47z-1" value="" style="rounded=0;whiteSpace=wrap;html=1;" vertex="1" parent="1">
          <mxGeometry x="150" y="280" width="280" height="150" as="geometry" />
        </mxCell>
        <mxCell id="Ptt1Fs8Xp1jdj_loe47z-2" value="Miscellaneous" style="text;html=1;align=center;verticalAlign=middle;resizable=0;points=[];autosize=1;strokeColor=none;fillColor=none;" vertex="1" parent="1">
          <mxGeometry x="150" y="280" width="100" height="30" as="geometry" />
        </mxCell>
        <mxCell id="Ptt1Fs8Xp1jdj_loe47z-6" style="edgeStyle=orthogonalEdgeStyle;rounded=0;orthogonalLoop=1;jettySize=auto;html=1;endArrow=none;endFill=0;" edge="1" parent="1" source="Ptt1Fs8Xp1jdj_loe47z-3" target="Ptt1Fs8Xp1jdj_loe47z-5">
          <mxGeometry relative="1" as="geometry" />
        </mxCell>
        <mxCell id="Ptt1Fs8Xp1jdj_loe47z-3" value="User" style="shape=umlActor;verticalLabelPosition=bottom;verticalAlign=top;html=1;" vertex="1" parent="1">
          <mxGeometry x="510" y="325" width="30" height="60" as="geometry" />
        </mxCell>
        <mxCell id="Ptt1Fs8Xp1jdj_loe47z-5" value="Change server endpoint" style="ellipse;whiteSpace=wrap;html=1;" vertex="1" parent="1">
          <mxGeometry x="230" y="320" width="110" height="70" as="geometry" />
        </mxCell>
      </root>
    </mxGraphModel>
  </diagram>
</mxfile>
